<?xml version="1.0" encoding="UTF-8" standalone="no"?><svg xmlns="http://www.w3.org/2000/svg" xmlns:xlink="http://www.w3.org/1999/xlink" contentScriptType="application/ecmascript" contentStyleType="text/css" height="252px" preserveAspectRatio="none" style="width:831px;height:252px;" version="1.1" viewBox="0 0 831 252" width="831px" zoomAndPan="magnify"><defs><filter height="300%" id="f1s6x0d95rsa9c" width="300%" x="-1" y="-1"><feGaussianBlur result="blurOut" stdDeviation="2.0"/><feColorMatrix in="blurOut" result="blurOut2" type="matrix" values="0 0 0 0 0 0 0 0 0 0 0 0 0 0 0 0 0 0 .4 0"/><feOffset dx="4.0" dy="4.0" in="blurOut2" result="blurOut3"/><feBlend in="SourceGraphic" in2="blurOut3" mode="normal"/></filter></defs><g><!--cluster Avenger--><path d="M377.5,68 C377.5,58 583.5,58 583.5,58 C583.5,58 789.5,58 789.5,68 L789.5,134 C789.5,144 583.5,144 583.5,144 C583.5,144 377.5,144 377.5,134 L377.5,68 " fill="#FFFFFF" filter="url(#f1s6x0d95rsa9c)" style="stroke: #000000; stroke-width: 1.5;"/><path d="M377.5,68 C377.5,78 583.5,78 583.5,78 C583.5,78 789.5,78 789.5,68 " fill="none" style="stroke: #000000; stroke-width: 1.5;"/><text fill="#000000" font-family="sans-serif" font-size="14" font-weight="bold" lengthAdjust="spacingAndGlyphs" textLength="58" x="554.5" y="93.5352">Avenger</text><!--cluster PostgreSQL--><path d="M421.5,164 C421.5,154 511.5,154 511.5,154 C511.5,154 601.5,154 601.5,164 L601.5,230 C601.5,240 511.5,240 511.5,240 C511.5,240 421.5,240 421.5,230 L421.5,164 " fill="#FFFFFF" filter="url(#f1s6x0d95rsa9c)" style="stroke: #000000; stroke-width: 1.5;"/><path d="M421.5,164 C421.5,174 511.5,174 511.5,174 C511.5,174 601.5,174 601.5,164 " fill="none" style="stroke: #000000; stroke-width: 1.5;"/><text fill="#000000" font-family="sans-serif" font-size="14" font-weight="bold" lengthAdjust="spacingAndGlyphs" textLength="83" x="470" y="189.5352">PostgreSQL</text><!--cluster LocalStorage--><path d="M671.5,164 C671.5,154 725,154 725,154 C725,154 778.5,154 778.5,164 L778.5,230 C778.5,240 725,240 725,240 C725,240 671.5,240 671.5,230 L671.5,164 " fill="#FFFFFF" filter="url(#f1s6x0d95rsa9c)" style="stroke: #000000; stroke-width: 1.5;"/><path d="M671.5,164 C671.5,174 725,174 725,174 C725,174 778.5,174 778.5,164 " fill="none" style="stroke: #000000; stroke-width: 1.5;"/><text fill="#000000" font-family="sans-serif" font-size="14" font-weight="bold" lengthAdjust="spacingAndGlyphs" textLength="91" x="679.5" y="189.5352">LocalStorage</text><!--entity Data A proxy--><rect fill="#FEFECE" filter="url(#f1s6x0d95rsa9c)" height="36.4883" style="stroke: #A80036; stroke-width: 1.5;" width="109" x="386" y="100"/><rect fill="#FEFECE" height="5" style="stroke: #A80036; stroke-width: 1.5;" width="10" x="381" y="105"/><rect fill="#FEFECE" height="5" style="stroke: #A80036; stroke-width: 1.5;" width="10" x="381" y="126.4883"/><text fill="#000000" font-family="sans-serif" font-size="14" lengthAdjust="spacingAndGlyphs" textLength="89" x="396" y="123.5352">Data A proxy</text><!--entity Data B proxy--><rect fill="#FEFECE" filter="url(#f1s6x0d95rsa9c)" height="36.4883" style="stroke: #A80036; stroke-width: 1.5;" width="107" x="530" y="100"/><rect fill="#FEFECE" height="5" style="stroke: #A80036; stroke-width: 1.5;" width="10" x="525" y="105"/><rect fill="#FEFECE" height="5" style="stroke: #A80036; stroke-width: 1.5;" width="10" x="525" y="126.4883"/><text fill="#000000" font-family="sans-serif" font-size="14" lengthAdjust="spacingAndGlyphs" textLength="87" x="540" y="123.5352">Data B proxy</text><!--entity Data C proxy--><rect fill="#FEFECE" filter="url(#f1s6x0d95rsa9c)" height="36.4883" style="stroke: #A80036; stroke-width: 1.5;" width="109" x="672" y="100"/><rect fill="#FEFECE" height="5" style="stroke: #A80036; stroke-width: 1.5;" width="10" x="667" y="105"/><rect fill="#FEFECE" height="5" style="stroke: #A80036; stroke-width: 1.5;" width="10" x="667" y="126.4883"/><text fill="#000000" font-family="sans-serif" font-size="14" lengthAdjust="spacingAndGlyphs" textLength="89" x="682" y="123.5352">Data C proxy</text><!--entity Data A--><rect fill="#FEFECE" filter="url(#f1s6x0d95rsa9c)" height="36.4883" style="stroke: #A80036; stroke-width: 1.5;" width="65" x="430" y="196"/><rect fill="#FEFECE" height="5" style="stroke: #A80036; stroke-width: 1.5;" width="10" x="425" y="201"/><rect fill="#FEFECE" height="5" style="stroke: #A80036; stroke-width: 1.5;" width="10" x="425" y="222.4883"/><text fill="#000000" font-family="sans-serif" font-size="14" lengthAdjust="spacingAndGlyphs" textLength="45" x="440" y="219.5352">Data A</text><!--entity Data B--><rect fill="#FEFECE" filter="url(#f1s6x0d95rsa9c)" height="36.4883" style="stroke: #A80036; stroke-width: 1.5;" width="63" x="530" y="196"/><rect fill="#FEFECE" height="5" style="stroke: #A80036; stroke-width: 1.5;" width="10" x="525" y="201"/><rect fill="#FEFECE" height="5" style="stroke: #A80036; stroke-width: 1.5;" width="10" x="525" y="222.4883"/><text fill="#000000" font-family="sans-serif" font-size="14" lengthAdjust="spacingAndGlyphs" textLength="43" x="540" y="219.5352">Data B</text><!--entity Data C--><rect fill="#FEFECE" filter="url(#f1s6x0d95rsa9c)" height="36.4883" style="stroke: #A80036; stroke-width: 1.5;" width="65" x="694" y="196"/><rect fill="#FEFECE" height="5" style="stroke: #A80036; stroke-width: 1.5;" width="10" x="689" y="201"/><rect fill="#FEFECE" height="5" style="stroke: #A80036; stroke-width: 1.5;" width="10" x="689" y="222.4883"/><text fill="#000000" font-family="sans-serif" font-size="14" lengthAdjust="spacingAndGlyphs" textLength="45" x="704" y="219.5352">Data C</text><ellipse cx="73.4158" cy="23.8832" fill="#FEFECE" filter="url(#f1s6x0d95rsa9c)" rx="67.4158" ry="15.8832" style="stroke: #A80036; stroke-width: 1.5;"/><text fill="#000000" font-family="sans-serif" font-size="14" lengthAdjust="spacingAndGlyphs" textLength="99" x="23.9158" y="28.6273">UI Component</text><ellipse cx="243.4158" cy="23.8832" fill="#FEFECE" filter="url(#f1s6x0d95rsa9c)" rx="67.4158" ry="15.8832" style="stroke: #A80036; stroke-width: 1.5;"/><text fill="#000000" font-family="sans-serif" font-size="14" lengthAdjust="spacingAndGlyphs" textLength="99" x="193.9158" y="28.6273">UI Component</text><ellipse cx="413.4158" cy="23.8832" fill="#FEFECE" filter="url(#f1s6x0d95rsa9c)" rx="67.4158" ry="15.8832" style="stroke: #A80036; stroke-width: 1.5;"/><text fill="#000000" font-family="sans-serif" font-size="14" lengthAdjust="spacingAndGlyphs" textLength="99" x="363.9158" y="28.6273">UI Component</text><ellipse cx="583.4158" cy="23.8832" fill="#FEFECE" filter="url(#f1s6x0d95rsa9c)" rx="67.4158" ry="15.8832" style="stroke: #A80036; stroke-width: 1.5;"/><text fill="#000000" font-family="sans-serif" font-size="14" lengthAdjust="spacingAndGlyphs" textLength="99" x="533.9158" y="28.6273">UI Component</text><ellipse cx="753.4158" cy="23.8832" fill="#FEFECE" filter="url(#f1s6x0d95rsa9c)" rx="67.4158" ry="15.8832" style="stroke: #A80036; stroke-width: 1.5;"/><text fill="#000000" font-family="sans-serif" font-size="14" lengthAdjust="spacingAndGlyphs" textLength="99" x="703.9158" y="28.6273">UI Component</text><!--link Data A proxy to Data A--><path d="M451.6667,136.0569 C451.6667,136.0569 451.6667,190.6977 451.6667,190.6977 " fill="none" id="Data A proxy-Data A" style="stroke: #A80036; stroke-width: 1.0;"/><polygon fill="#A80036" points="451.6667,195.6977,455.6667,186.6977,451.6667,190.6977,447.6667,186.6977,451.6667,195.6977" style="stroke: #A80036; stroke-width: 1.0;"/><!--link Data A to Data A proxy--><path d="M473.3333,195.9431 C473.3333,195.9431 473.3333,141.3023 473.3333,141.3023 " fill="none" id="Data A-Data A proxy" style="stroke: #A80036; stroke-width: 1.0;"/><polygon fill="#A80036" points="473.3333,136.3023,469.3333,145.3023,473.3333,141.3023,477.3333,145.3023,473.3333,136.3023" style="stroke: #A80036; stroke-width: 1.0;"/><!--link Data B proxy to Data B--><path d="M572,136.0569 C572,136.0569 572,190.6977 572,190.6977 " fill="none" id="Data B proxy-Data B" style="stroke: #A80036; stroke-width: 1.0;"/><polygon fill="#A80036" points="572,195.6977,576,186.6977,572,190.6977,568,186.6977,572,195.6977" style="stroke: #A80036; stroke-width: 1.0;"/><!--link Data B to Data B proxy--><path d="M551,195.9431 C551,195.9431 551,141.3023 551,141.3023 " fill="none" id="Data B-Data B proxy" style="stroke: #A80036; stroke-width: 1.0;"/><polygon fill="#A80036" points="551,136.3023,547,145.3023,551,141.3023,555,145.3023,551,136.3023" style="stroke: #A80036; stroke-width: 1.0;"/><!--link Data C proxy to Data C--><path d="M715.6667,136.0569 C715.6667,136.0569 715.6667,190.6977 715.6667,190.6977 " fill="none" id="Data C proxy-Data C" style="stroke: #A80036; stroke-width: 1.0;"/><polygon fill="#A80036" points="715.6667,195.6977,719.6667,186.6977,715.6667,190.6977,711.6667,186.6977,715.6667,195.6977" style="stroke: #A80036; stroke-width: 1.0;"/><!--link Data C to Data C proxy--><path d="M737.3333,195.9431 C737.3333,195.9431 737.3333,141.3023 737.3333,141.3023 " fill="none" id="Data C-Data C proxy" style="stroke: #A80036; stroke-width: 1.0;"/><polygon fill="#A80036" points="737.3333,136.3023,733.3333,145.3023,737.3333,141.3023,741.3333,145.3023,737.3333,136.3023" style="stroke: #A80036; stroke-width: 1.0;"/><!--link UC1 to Data A proxy--><path d="M73.5,40.0667 C73.5,68.3344 73.5,124 73.5,124 C73.5,124 380.9527,124 380.9527,124 " fill="none" id="UC1-Data A proxy" style="stroke: #A80036; stroke-width: 1.0;"/><polygon fill="#A80036" points="385.9527,124,376.9527,120,380.9527,124,376.9527,128,385.9527,124" style="stroke: #A80036; stroke-width: 1.0;"/><!--link UC2 to Data A proxy--><path d="M243.5,40.1406 C243.5,65.5454 243.5,112 243.5,112 C243.5,112 380.8861,112 380.8861,112 " fill="none" id="UC2-Data A proxy" style="stroke: #A80036; stroke-width: 1.0;"/><polygon fill="#A80036" points="385.8861,112,376.8861,108,380.8861,112,376.8861,116,385.8861,112" style="stroke: #A80036; stroke-width: 1.0;"/><!--link UC3 to Data A proxy--><path d="M433.5,39.5222 C433.5,39.5222 433.5,94.8793 433.5,94.8793 " fill="none" id="UC3-Data A proxy" style="stroke: #A80036; stroke-width: 1.0;"/><polygon fill="#A80036" points="433.5,99.8793,437.5,90.8793,433.5,94.8793,429.5,90.8793,433.5,99.8793" style="stroke: #A80036; stroke-width: 1.0;"/><!--link UC4 to Data A proxy--><path d="M520.7104,30 C501.6581,30 485.6667,30 485.6667,30 C485.6667,30 485.6667,94.7663 485.6667,94.7663 " fill="none" id="UC4-Data A proxy" style="stroke: #A80036; stroke-width: 1.0;"/><polygon fill="#A80036" points="485.6667,99.7663,489.6667,90.7663,485.6667,94.7663,481.6667,90.7663,485.6667,99.7663" style="stroke: #A80036; stroke-width: 1.0;"/><!--link UC5 to Data A proxy--><path d="M717.6667,38.0515 C717.6667,51.5792 717.6667,70 717.6667,70 C717.6667,70 490.3333,70 490.3333,70 C490.3333,70 490.3333,94.8533 490.3333,94.8533 " fill="none" id="UC5-Data A proxy" style="stroke: #A80036; stroke-width: 1.0;"/><polygon fill="#A80036" points="490.3333,99.8533,494.3333,90.8533,490.3333,94.8533,486.3333,90.8533,490.3333,99.8533" style="stroke: #A80036; stroke-width: 1.0;"/><!--link UC3 to Data B proxy--><path d="M477.897,19 C493.3585,19 505.5,19 505.5,19 C505.5,19 505.5,118 505.5,118 C505.5,118 524.7521,118 524.7521,118 " fill="none" id="UC3-Data B proxy" style="stroke: #A80036; stroke-width: 1.0;"/><polygon fill="#A80036" points="529.7521,118,520.7521,114,524.7521,118,520.7521,122,529.7521,118" style="stroke: #A80036; stroke-width: 1.0;"/><!--link UC4 to Data B proxy--><path d="M583.5,40.3736 C583.5,40.3736 583.5,94.8898 583.5,94.8898 " fill="none" id="UC4-Data B proxy" style="stroke: #A80036; stroke-width: 1.0;"/><polygon fill="#A80036" points="583.5,99.8898,587.5,90.8898,583.5,94.8898,579.5,90.8898,583.5,99.8898" style="stroke: #A80036; stroke-width: 1.0;"/><!--link UC5 to Data B proxy--><path d="M685.6719,24 C671.8826,24 661.5,24 661.5,24 C661.5,24 661.5,118 661.5,118 C661.5,118 642.2479,118 642.2479,118 " fill="none" id="UC5-Data B proxy" style="stroke: #A80036; stroke-width: 1.0;"/><polygon fill="#A80036" points="637.2479,118,646.2479,122,642.2479,118,646.2479,114,637.2479,118" style="stroke: #A80036; stroke-width: 1.0;"/><!--link UC5 to Data C proxy--><path d="M749.3333,40.3736 C749.3333,40.3736 749.3333,94.8898 749.3333,94.8898 " fill="none" id="UC5-Data C proxy" style="stroke: #A80036; stroke-width: 1.0;"/><polygon fill="#A80036" points="749.3333,99.8898,753.3333,90.8898,749.3333,94.8898,745.3333,90.8898,749.3333,99.8898" style="stroke: #A80036; stroke-width: 1.0;"/><!--
@startuml "Avenger"
skinparam linetype ortho

database "Avenger" {
[Data A proxy]
[Data B proxy]
[Data C proxy]
}
database "PostgreSQL" {
[Data A]
[Data B]
[Data A proxy] - -> [Data A]
[Data A] - -> [Data A proxy]
[Data B proxy] - -> [Data B]
[Data B] - -> [Data B proxy]
}

database "LocalStorage" {
[Data C]
[Data C proxy] - -> [Data C]
[Data C] - -> [Data C proxy]
}

(UI Component) as (UC1)
(UI Component) as (UC2)
(UI Component) as (UC3)
(UI Component) as (UC4)
(UI Component) as (UC5)

(UC1) - -> [Data A proxy]
(UC2) - -> [Data A proxy]
(UC3) - -> [Data A proxy]
(UC4) - -> [Data A proxy]
(UC5) - -> [Data A proxy]

(UC3) - -> [Data B proxy]
(UC4) - -> [Data B proxy]
(UC5) - -> [Data B proxy]

(UC5) - -> [Data C proxy]

@enduml

PlantUML version 1.2019.05(Sat Apr 20 18:45:36 CEST 2019)
(GPL source distribution)
Java Runtime: Java(TM) SE Runtime Environment
JVM: Java HotSpot(TM) 64-Bit Server VM
Java Version: 1.8.0_181-b13
Operating System: Mac OS X
OS Version: 10.14.5
Default Encoding: UTF-8
Language: en
Country: IT
--></g></svg>